<svg width="118" height="118" viewBox="0 0 118 118" fill="none" xmlns="http://www.w3.org/2000/svg">
<path fill-rule="evenodd" clip-rule="evenodd" d="M83.4933 28.7254C83.8762 29.0359 83.652 29.6417 83.1587 29.6417H34.8418C34.3485 29.6417 34.1244 29.0359 34.5077 28.7254C41.1979 23.3064 49.72 20.06 59 20.06C68.2807 20.06 76.8021 23.3064 83.4933 28.7254Z" fill="white"/>
<path fill-rule="evenodd" clip-rule="evenodd" d="M43.8528 69.6023C43.5742 69.2046 43.1256 68.9551 42.6404 68.9551H22.2678C21.8009 68.9551 21.4608 69.3982 21.5905 69.8466C26.2877 86.0751 41.2584 97.94 59.0006 97.94C76.7431 97.94 91.7131 86.0751 96.4101 69.8466C96.5405 69.3982 96.2001 68.9551 95.7334 68.9551H75.3607C74.8757 68.9551 74.4273 69.2046 74.1482 69.6023C70.8047 74.3701 65.2664 77.4877 59.0006 77.4877C52.7346 77.4877 47.1966 74.3701 43.8528 69.6023Z" fill="white"/>
<path fill-rule="evenodd" clip-rule="evenodd" d="M72.698 46.5833C72.9801 46.8937 73.3754 47.0808 73.7948 47.0808H95.1062C95.5889 47.0808 95.9316 46.6108 95.7718 46.1552C94.2678 41.8497 92.0288 37.889 89.2056 34.4235C88.9413 34.0982 88.5413 33.914 88.1218 33.914H29.8785C29.4589 33.914 29.0596 34.0982 28.7946 34.4235C25.9713 37.889 23.7324 41.8497 22.2284 46.1552C22.0692 46.6108 22.4117 47.0808 22.8943 47.0808H44.2058C44.6251 47.0808 45.0207 46.8937 45.3024 46.5833C48.685 42.8542 53.5691 40.5124 59.0006 40.5124C64.4315 40.5124 69.3156 42.8542 72.698 46.5833Z" fill="white"/>
<path fill-rule="evenodd" clip-rule="evenodd" d="M77.3289 64.6911C76.9667 64.6911 76.7088 64.3377 76.8068 63.989C77.2511 62.4008 77.4882 60.7263 77.4882 58.9965C77.4882 56.5621 77.018 54.2377 76.1637 52.109C76.0185 51.7487 76.2781 51.3467 76.6658 51.3467H96.7517C97.006 51.3467 97.2261 51.5264 97.2727 51.7766C97.7111 54.1164 97.9406 56.53 97.9406 58.9971C97.9406 60.773 97.8214 62.5217 97.5919 64.2345C97.5559 64.497 97.3311 64.6911 97.0662 64.6911H77.3289ZM41.1934 63.989C41.291 64.3377 41.0339 64.6911 40.6715 64.6911H20.934C20.6692 64.6911 20.4439 64.497 20.4086 64.2345C20.1784 62.5217 20.0594 60.773 20.0594 58.9971C20.0594 56.53 20.2889 54.1164 20.7276 51.7766C20.7744 51.5264 20.994 51.3467 21.2486 51.3467H41.334C41.7223 51.3467 41.9817 51.7487 41.837 52.109C40.982 54.2377 40.5115 56.5621 40.5115 58.9965C40.5115 60.7263 40.7491 62.4008 41.1934 63.989Z" fill="white"/>
</svg>
