<svg width="303" height="303" viewBox="32 32 239 239" fill="none" xmlns="http://www.w3.org/2000/svg">
<g clip-path="url(#clip0_7_75)">
<path d="M179.551 135.226C179.551 147.476 169.668 157.418 157.418 157.418V179.61C181.859 179.61 201.625 159.785 201.625 135.285C201.625 110.784 181.8 90.9592 157.418 90.9592C149.37 90.9592 141.795 93.0896 135.285 96.8771C122.088 104.511 113.152 118.892 113.152 135.285V246.128L133.036 266.072L135.285 268.321V135.226C135.285 122.975 145.168 113.033 157.418 113.033C169.668 113.033 179.551 123.035 179.551 135.226Z" fill="white"/>
<path d="M157.418 46.5744C141.321 46.5744 126.23 50.8945 113.211 58.4695C104.866 63.2631 97.4098 69.4178 91.0775 76.6377C77.3478 92.2611 68.9443 112.796 68.9443 135.285V201.803L91.0775 223.995V135.226C91.0775 115.519 99.5994 97.824 113.211 85.633C119.602 79.8926 127.059 75.3949 135.344 72.4951C142.268 70.0096 149.725 68.7076 157.477 68.7076C194.109 68.7076 223.818 98.475 223.818 135.226C223.818 171.976 194.05 201.744 157.418 201.744V223.936C206.241 223.936 245.832 184.226 245.832 135.285C245.832 86.3432 206.241 46.5744 157.418 46.5744Z" fill="white"/>
</g>
<defs>
<clipPath id="clip0_7_75">
<rect width="303" height="303" fill="white"/>
</clipPath>
</defs>
</svg>
