<svg width="51" height="51" viewBox="0 0 51 51" fill="none" xmlns="http://www.w3.org/2000/svg">
<mask id="mask0_5_46" style="mask-type:luminance" maskUnits="userSpaceOnUse" x="0" y="0" width="51" height="51">
<path d="M51 0H0V51H51V0Z" fill="white"/>
</mask>
<g mask="url(#mask0_5_46)">
<path d="M47.9423 35.5559C43.7631 38.3255 35.7117 40.2344 26.3876 40.3486C25.9014 40.3535 25.5046 39.9297 25.5046 39.4067V35.9672C25.5046 35.4519 25.1174 35.0304 24.6381 35.0255H24.6168C24.546 35.0255 24.4728 35.0255 24.4019 35.023C24.1092 35.0179 23.8187 35.0128 23.5283 35.0051C23.5118 35.0051 23.4929 35.0051 23.4764 35.0051C23.2001 34.9975 22.9239 34.9873 22.65 34.9771C22.5815 34.9745 22.513 34.972 22.4446 34.9697C22.1589 34.9569 21.8732 34.9442 21.5899 34.9289C21.5639 34.9289 21.5379 34.9263 21.5119 34.9238C21.2475 34.9087 20.9854 34.8934 20.7257 34.8756C20.6619 34.8705 20.5982 34.8679 20.5344 34.8628C20.2535 34.8427 19.9749 34.8223 19.6986 34.7996C19.6656 34.797 19.6325 34.7945 19.6018 34.7919C19.3492 34.7715 19.0989 34.7486 18.8486 34.7234C18.7896 34.7183 18.7306 34.7132 18.6739 34.7055C18.4 34.6777 18.1285 34.6497 17.8593 34.6193C17.8239 34.6142 17.7885 34.6117 17.7531 34.6066C17.5075 34.5785 17.2643 34.5482 17.0211 34.5178C16.9715 34.5102 16.9196 34.5051 16.87 34.5C16.6032 34.4645 16.3364 34.4288 16.0743 34.3908C16.0389 34.3857 16.0035 34.3806 15.9681 34.3755C15.7272 34.3401 15.4911 34.3044 15.2526 34.2664C15.2101 34.2587 15.17 34.2536 15.1275 34.246C14.8654 34.2054 14.608 34.1624 14.3507 34.1167C14.3176 34.1116 14.2846 34.104 14.2515 34.0989C14.0131 34.0558 13.7793 34.0127 13.5456 33.9693C13.5149 33.9642 13.4842 33.9568 13.4535 33.9517C13.1985 33.9035 12.9482 33.8525 12.6979 33.7992C12.6672 33.7941 12.6389 33.7867 12.6082 33.7816C12.3721 33.7309 12.1383 33.6801 11.9069 33.6291C11.8881 33.6243 11.8692 33.6218 11.8526 33.6167C11.6047 33.5608 11.3615 33.5024 11.1183 33.444C11.0924 33.4389 11.0687 33.4313 11.0428 33.4262C10.8067 33.3678 10.5729 33.3094 10.3439 33.2484C10.3368 33.2484 10.3321 33.2459 10.325 33.2433C10.0865 33.1798 9.85278 33.114 9.61902 33.048C9.59778 33.0429 9.57651 33.0353 9.55293 33.0302C9.09013 32.8958 8.63916 32.7586 8.20471 32.614C8.18819 32.6089 8.17167 32.6038 8.15514 32.5961C7.71598 32.4488 7.29097 32.2991 6.88249 32.1417C6.87068 32.1366 6.85888 32.1315 6.84707 32.129C6.43624 31.9716 6.03959 31.8067 5.65943 31.6391C5.65 31.6366 5.64291 31.6315 5.63347 31.6289C5.25097 31.4588 4.88737 31.2837 4.53792 31.1036C4.5332 31.1011 4.52848 31.0985 4.52139 31.096C4.17194 30.9157 3.84138 30.7303 3.52735 30.5401C3.52501 30.5401 3.52026 30.5375 3.51792 30.535C3.20388 30.3445 2.90875 30.1492 2.63251 29.9485C2.63251 29.9485 2.63251 29.9485 2.62776 29.9459C2.35153 29.7455 2.09417 29.5397 1.85805 29.3316C1.30555 28.8849 0.913609 28.3239 0.630276 27.7858C0.460276 27.4607 0.00221978 27.5826 0.00221978 27.9559V31.2329C0.00221978 36.1753 10.9483 40.2013 24.6239 40.3662C25.1056 40.3713 25.4951 40.7903 25.4951 41.308V44.7528C25.4951 45.2707 25.1032 45.6868 24.6215 45.6817H24.6121C24.5412 45.6817 24.4681 45.6817 24.3972 45.6792C24.1044 45.6743 23.814 45.6692 23.5236 45.6616C23.5071 45.6616 23.4882 45.6616 23.4717 45.6616C23.1954 45.6539 22.9192 45.6437 22.6453 45.6335C22.5768 45.631 22.5083 45.6284 22.4399 45.6259C22.1542 45.6134 21.8685 45.6006 21.5851 45.5853C21.5592 45.5853 21.5332 45.5828 21.5072 45.5802C21.2428 45.5649 20.9807 45.5499 20.721 45.532C20.6572 45.5269 20.5935 45.5244 20.5297 45.5193C20.2487 45.4991 19.9701 45.4787 19.6939 45.4558C19.6608 45.4532 19.6278 45.4507 19.5971 45.4484C19.3444 45.428 19.0942 45.405 18.8439 45.3798C18.7849 45.3747 18.7258 45.3696 18.6692 45.3619C18.3953 45.3342 18.1238 45.3061 17.8546 45.2758C17.8192 45.2707 17.7837 45.2681 17.7483 45.263C17.5028 45.235 17.2596 45.2046 17.0164 45.174C16.9668 45.1666 16.9149 45.1615 16.8653 45.1564C16.5985 45.1207 16.3317 45.0853 16.0696 45.0473C16.0342 45.0422 15.9987 45.0371 15.9633 45.032C15.7225 44.9965 15.4864 44.9608 15.2479 44.9228C15.2054 44.9152 15.1653 44.9101 15.1228 44.9024C14.8607 44.8619 14.6033 44.8188 14.346 44.7732C14.3129 44.7681 14.2799 44.7604 14.2468 44.7553C14.0083 44.7122 13.7746 44.6689 13.5408 44.6258C13.5101 44.6207 13.4794 44.613 13.4487 44.6082C13.1937 44.5597 12.9435 44.509 12.6932 44.4557C12.6625 44.4506 12.6342 44.4429 12.6035 44.4381C12.3674 44.3871 12.1336 44.3363 11.9022 44.2856C11.8833 44.2805 11.8644 44.2779 11.8479 44.2731C11.6 44.2173 11.3568 44.1589 11.1136 44.1005C11.0876 44.0954 11.064 44.0877 11.038 44.0826C10.8019 44.0242 10.5682 43.9658 10.3392 43.9049C10.3321 43.9049 10.3274 43.9023 10.3203 43.8998C10.0818 43.8363 9.84806 43.7702 9.6143 43.7045C9.59306 43.6994 9.5718 43.6917 9.54818 43.6866C9.08541 43.552 8.63444 43.415 8.2 43.2702C8.18347 43.2653 8.16695 43.2602 8.15043 43.2526C7.71124 43.1052 7.28626 42.9555 6.87777 42.7982C6.86596 42.7931 6.85416 42.788 6.84235 42.7854C6.43152 42.6281 6.03487 42.4631 5.65471 42.2956C5.64528 42.293 5.63819 42.2879 5.62876 42.2854C5.24626 42.1153 4.88263 41.9401 4.5332 41.7598C4.52848 41.7573 4.52374 41.7547 4.51668 41.7522C4.16722 41.5721 3.83667 41.3868 3.52263 41.1963C3.52026 41.1963 3.51555 41.1937 3.5132 41.1914C3.19917 41.0009 2.90403 40.8054 2.62776 40.6049C2.62776 40.6049 2.62776 40.6049 2.62305 40.6024C2.3468 40.4019 2.08944 40.1962 1.85333 39.9881C1.30083 39.5413 0.908887 38.9803 0.625554 38.4423C0.455553 38.1171 -0.00250244 38.239 -0.00250244 38.6124V41.8894C-0.00250244 46.8292 10.9389 50.8552 24.6097 51.0227C25.0961 51.0278 25.4975 50.6088 25.4975 50.0861V46.6438C25.4975 46.1285 25.8822 45.7072 26.3616 45.7021C40.7691 45.5346 49.5761 41.209 49.5761 38.0919C49.5761 37.3024 49.0118 36.4367 47.9351 35.5789L47.9423 35.5559Z" fill="white"/>
<path d="M3.0579 15.451C7.23944 12.6815 15.2932 10.7726 24.6219 10.6584C25.106 10.6533 25.5002 11.0772 25.5002 11.5951V15.0448C25.5002 15.5601 25.8876 15.9815 26.3667 15.9866H26.3882C26.4588 15.9866 26.532 15.9866 26.6029 15.9891C26.8956 15.9942 27.186 15.9993 27.4765 16.0069C27.4931 16.0069 27.5119 16.0069 27.5285 16.0069C27.8047 16.0145 28.0808 16.0246 28.355 16.0348C28.4233 16.0373 28.4919 16.0399 28.5602 16.0424C28.8458 16.0551 29.1317 16.0678 29.415 16.083C29.441 16.083 29.467 16.0856 29.493 16.0881C29.7575 16.1033 30.0194 16.1186 30.2792 16.1364C30.3429 16.1414 30.4067 16.144 30.4704 16.149C30.7515 16.1694 31.0299 16.1897 31.3063 16.2125C31.3392 16.2151 31.3724 16.2176 31.403 16.2201C31.6557 16.2404 31.9058 16.2633 32.1563 16.2886C32.2152 16.2937 32.2743 16.2988 32.3309 16.3064C32.6048 16.3343 32.8764 16.3623 33.1457 16.3927C33.1808 16.3978 33.2163 16.4003 33.2517 16.4054C33.4973 16.4333 33.7406 16.4638 33.9838 16.4943C34.0333 16.5019 34.0853 16.5069 34.1348 16.512C34.4018 16.5476 34.6685 16.5831 34.9307 16.6212C34.9658 16.6263 35.0013 16.6313 35.0367 16.6364C35.2777 16.672 35.5138 16.7075 35.7523 16.7456C35.7946 16.7532 35.8349 16.7583 35.8775 16.7659C36.1394 16.8065 36.3969 16.8496 36.6542 16.8953C36.6871 16.9004 36.7202 16.908 36.7534 16.9131C36.9918 16.9563 37.2257 16.9994 37.4592 17.0426C37.4901 17.0477 37.5207 17.0553 37.5513 17.0604C37.8063 17.1086 38.0567 17.1593 38.3069 17.2126C38.3377 17.2177 38.366 17.2253 38.3966 17.2304C38.6327 17.2812 38.8666 17.332 39.0979 17.3827C39.1167 17.3878 39.1356 17.3903 39.1522 17.3954C39.4 17.4513 39.6433 17.5096 39.8866 17.568C39.9126 17.5731 39.936 17.5807 39.9621 17.5858C40.1982 17.6442 40.432 17.7026 40.661 17.7635C40.6682 17.7635 40.6727 17.766 40.6799 17.7686C40.9183 17.832 41.1521 17.898 41.3857 17.964C41.4071 17.9691 41.4283 17.9767 41.452 17.9818C41.9146 18.1163 42.3657 18.2534 42.8002 18.3981C42.8168 18.4032 42.8331 18.4083 42.8497 18.4159C43.2888 18.5631 43.7139 18.7129 44.1224 18.8703C44.1341 18.8753 44.1458 18.8804 44.1578 18.8829C44.5686 19.0403 44.9652 19.2053 45.3454 19.3729C45.3548 19.3754 45.3619 19.3805 45.3714 19.383C45.7539 19.5531 46.1175 19.7283 46.4669 19.9085C46.4717 19.911 46.4763 19.9136 46.4834 19.9161C46.8328 20.0963 47.1658 20.2816 47.4774 20.472C47.48 20.472 47.4823 20.4745 47.4869 20.4771C47.801 20.6675 48.096 20.8629 48.3725 21.0635C48.3725 21.0635 48.3748 21.0635 48.3771 21.066C48.6532 21.2666 48.9108 21.4722 49.1469 21.6803C49.7015 22.1296 50.096 22.6932 50.377 23.2339C50.5446 23.5562 51.0025 23.4268 51.0025 23.0587V19.779C51.0025 14.8366 40.0518 10.8107 26.3716 10.6457C25.8922 10.6406 25.5051 10.2243 25.5051 9.70898V6.25416C25.5051 5.73379 25.8993 5.31492 26.3833 5.32255H26.3927C26.4636 5.32255 26.5368 5.32255 26.6077 5.3251C26.9004 5.33017 27.1909 5.33525 27.4813 5.34285C27.4977 5.34285 27.5165 5.34285 27.5331 5.34285C27.8095 5.35047 28.0857 5.36062 28.3596 5.37077C28.4282 5.37332 28.4965 5.37587 28.5651 5.37839C28.8507 5.39109 29.1363 5.40379 29.4196 5.41901C29.4456 5.41901 29.4716 5.42154 29.4976 5.42409C29.7621 5.43931 30.0242 5.45454 30.2838 5.47231C30.3475 5.47738 30.4113 5.47993 30.475 5.48501C30.756 5.50531 31.0348 5.52563 31.3109 5.54848C31.3441 5.551 31.377 5.55355 31.4078 5.55608C31.6605 5.5764 31.9107 5.59925 32.1608 5.62462C32.22 5.62969 32.2789 5.63477 32.3358 5.64239C32.6096 5.67032 32.8812 5.69824 33.1502 5.72871C33.1857 5.73379 33.2211 5.73631 33.2566 5.74139C33.5021 5.76931 33.7452 5.79978 33.9884 5.83023C34.0382 5.83785 34.0899 5.84293 34.1396 5.848C34.4064 5.88355 34.6731 5.91909 34.9352 5.95717C34.9707 5.96224 35.0061 5.96731 35.0416 5.97239C35.2823 6.00794 35.5184 6.04346 35.7569 6.08156C35.7994 6.08915 35.8395 6.09423 35.8821 6.10185C36.1442 6.14247 36.4015 6.18562 36.6588 6.23132C36.6919 6.23639 36.7251 6.24402 36.758 6.24909C36.9964 6.29224 37.2302 6.33538 37.4641 6.37855C37.4947 6.38363 37.5253 6.39123 37.5561 6.3963C37.8111 6.44455 38.0613 6.49532 38.3117 6.54861C38.3423 6.55369 38.3706 6.56131 38.4015 6.56639C38.6376 6.61716 38.8712 6.66793 39.1027 6.7187C39.1216 6.72377 39.1404 6.72632 39.157 6.7314C39.4049 6.78724 39.6482 6.84561 39.8912 6.90401C39.9172 6.90908 39.9409 6.91671 39.9669 6.92178C40.203 6.98015 40.4366 7.03854 40.6656 7.09946C40.6727 7.09946 40.6776 7.10201 40.6845 7.10454C40.9232 7.16801 41.1567 7.234 41.3906 7.3C41.4117 7.30507 41.4332 7.3127 41.4566 7.31777C41.9194 7.45231 42.3703 7.5894 42.8048 7.73408C42.8214 7.73916 42.8379 7.74423 42.8545 7.75186C43.2936 7.89907 43.7187 8.04885 44.127 8.20624C44.139 8.21132 44.1507 8.21639 44.1624 8.21891C44.5732 8.3763 44.97 8.54131 45.3502 8.70885C45.3596 8.71137 45.3665 8.71644 45.3762 8.71899C45.7587 8.88908 46.1221 9.06421 46.4717 9.24445C46.4763 9.247 46.4811 9.24952 46.4883 9.25207C46.8376 9.43231 47.1707 9.61761 47.4823 9.808C47.4846 9.808 47.4869 9.81052 47.4917 9.81307C47.8056 10.0035 48.1009 10.1989 48.3771 10.3994C48.3771 10.3994 48.3794 10.3994 48.3819 10.402C48.6581 10.6025 48.9154 10.8081 49.1515 11.0163C49.7064 11.4656 50.1006 12.0291 50.3816 12.5698C50.5494 12.8922 51.0074 12.7628 51.0074 12.3921V9.11246C51.0074 4.17262 40.0658 0.146648 26.395 -0.0208894C25.9088 -0.0259664 25.5074 0.392877 25.5074 0.915798V4.36808C25.5074 4.88086 25.1249 5.2997 24.6479 5.30477C10.2286 5.49516 1.41693 9.82067 1.41693 12.9379C1.41693 13.7273 1.98124 14.593 3.0579 15.451Z" fill="white"/>
<path d="M25.8565 22.0666H25.4314C25.1575 22.0666 24.8836 22.0666 24.6121 22.0616C24.5412 22.0616 24.4681 22.0616 24.3972 22.059C24.1044 22.0539 23.814 22.0489 23.5236 22.0413C23.5071 22.0413 23.4882 22.0413 23.4717 22.0413C23.1954 22.0337 22.9192 22.0235 22.6453 22.0133C22.5768 22.0108 22.5083 22.0083 22.4399 22.0057C22.1542 21.993 21.8685 21.9803 21.5851 21.9651C21.5592 21.9651 21.5332 21.9626 21.5096 21.96C21.2451 21.9448 20.983 21.9296 20.7233 21.9118C20.6596 21.9067 20.5958 21.9042 20.5321 21.8991C20.2511 21.8788 19.9725 21.8585 19.6962 21.8356C19.6632 21.8331 19.6301 21.8306 19.5994 21.828C19.3468 21.8077 19.0965 21.7849 18.8462 21.7595C18.7872 21.7544 18.7282 21.7493 18.6715 21.7417C18.3976 21.7138 18.1261 21.6859 17.8569 21.6554C17.8215 21.6503 17.7861 21.6478 17.7507 21.6427C17.5051 21.6148 17.2619 21.5843 17.0187 21.5539C16.9692 21.5463 16.9172 21.5412 16.8676 21.5361C16.6008 21.5006 16.334 21.465 16.0719 21.427C16.0365 21.4219 16.0011 21.4168 15.9633 21.4117C15.7225 21.3762 15.4864 21.3406 15.2479 21.3026C15.2054 21.2949 15.1653 21.2899 15.1228 21.2823C14.8607 21.2416 14.6033 21.1985 14.346 21.1528C14.3129 21.1477 14.2799 21.1401 14.2468 21.135C14.0083 21.0919 13.7746 21.0487 13.5408 21.0056C13.5101 21.0005 13.4794 20.9929 13.4487 20.9878C13.1937 20.9396 12.9435 20.8888 12.6932 20.8355C12.6625 20.8304 12.6342 20.8228 12.6035 20.8177C12.3674 20.767 12.1336 20.7162 11.9022 20.6654C11.8833 20.6604 11.8644 20.6578 11.8479 20.6527C11.6 20.5969 11.3568 20.5385 11.1136 20.4801C11.0876 20.475 11.064 20.4674 11.038 20.4623C10.8019 20.4039 10.5706 20.3456 10.3392 20.2847C10.3321 20.2847 10.3274 20.2821 10.3203 20.2796C10.0818 20.2161 9.84569 20.1501 9.6143 20.0841C9.59306 20.079 9.5718 20.0714 9.54818 20.0664C9.08541 19.9318 8.63444 19.7947 8.2 19.65C8.18347 19.645 8.16695 19.6399 8.15043 19.6323C7.71124 19.485 7.28626 19.3353 6.87777 19.1779C6.86596 19.1728 6.85416 19.1677 6.84235 19.1652C6.43152 19.0078 6.03487 18.8428 5.65471 18.6753C5.64528 18.6727 5.63819 18.6677 5.62876 18.6651C5.24626 18.495 4.88263 18.3199 4.5332 18.1396C4.52848 18.1371 4.52374 18.1346 4.51668 18.1321C4.16722 17.9518 3.8343 17.7665 3.52263 17.5761C3.52029 17.5761 3.51792 17.5736 3.5132 17.571C3.19917 17.3807 2.90403 17.1852 2.62776 16.9847C2.62776 16.9847 2.62542 16.9847 2.62305 16.9821C2.3468 16.7816 2.08944 16.576 1.85333 16.3678C1.29847 15.9185 0.904164 15.3524 0.623192 14.8143C0.455553 14.4919 -0.00250244 14.6214 -0.00250244 14.9895V19.7922C-0.00250244 24.8386 11.4135 28.9305 25.4975 28.9305V28.928C25.795 28.9305 26.0901 28.9331 26.3853 28.9382C26.4562 28.9382 26.5294 28.9382 26.6001 28.9407C26.8928 28.9458 27.1832 28.9509 27.4737 28.9586C27.4903 28.9586 27.5091 28.9586 27.5257 28.9586C27.8019 28.9662 28.0783 28.9764 28.3522 28.9864C28.4205 28.9889 28.4891 28.9915 28.5574 28.994C28.8433 29.0068 29.1289 29.0195 29.4122 29.0348C29.4382 29.0348 29.4642 29.0374 29.4902 29.0396C29.7547 29.0549 30.0165 29.0703 30.2764 29.0881C30.3401 29.0929 30.4039 29.0955 30.4676 29.1006C30.7487 29.121 31.0271 29.1414 31.3035 29.1641C31.3364 29.1666 31.3696 29.1692 31.4002 29.1717C31.6529 29.1921 31.9033 29.2148 32.1534 29.2403C32.2126 29.2454 32.2692 29.2505 32.3281 29.2582C32.602 29.286 32.8736 29.314 33.1428 29.3444C33.1783 29.3495 33.2137 29.352 33.2489 29.3571C33.4945 29.3849 33.7378 29.4155 33.981 29.4459C34.0305 29.4535 34.0825 29.4586 34.132 29.4637C34.399 29.4992 34.6657 29.5349 34.9278 29.5729C34.9633 29.578 34.9985 29.5831 35.0339 29.5882C35.2749 29.6236 35.5133 29.659 35.7495 29.6973C35.792 29.7049 35.8321 29.7098 35.8747 29.7174C36.1365 29.7582 36.3941 29.8013 36.6514 29.847C36.6845 29.8521 36.7174 29.8597 36.7506 29.8648C36.989 29.9079 37.2228 29.951 37.4564 29.9941C37.4873 29.9992 37.5179 30.0069 37.5485 30.012C37.8035 30.0602 38.0539 30.1109 38.304 30.1642C38.3349 30.1693 38.3632 30.177 38.3938 30.1821C38.6299 30.2328 38.8638 30.2835 39.0951 30.3343C39.1139 30.3394 39.1328 30.3419 39.1494 30.347C39.3972 30.4029 39.6405 30.4613 39.8838 30.5197C39.9098 30.5248 39.9332 30.5324 39.9593 30.5375C40.1954 30.5959 40.4292 30.6543 40.6582 30.7153C40.6653 30.7153 40.6699 30.7178 40.6771 30.7201C40.9155 30.7836 41.1493 30.8496 41.3832 30.9157C41.4043 30.9208 41.4278 30.9284 41.4492 30.9335C41.912 31.0679 42.3629 31.2051 42.7974 31.3497C42.814 31.3548 42.8303 31.3599 42.8469 31.3675C43.286 31.5147 43.7111 31.6646 44.1196 31.822C44.1313 31.8271 44.1433 31.8322 44.155 31.8347C44.5658 31.992 44.9626 32.157 45.3426 32.3246C45.352 32.3271 45.3591 32.3322 45.3686 32.3348C45.7511 32.5048 46.1147 32.68 46.464 32.8601C46.4689 32.8626 46.4735 32.8652 46.4806 32.8677C46.8302 33.048 47.1607 33.2334 47.4746 33.4236C47.4772 33.4236 47.4818 33.4262 47.484 33.4287C47.7982 33.6192 48.0932 33.8145 48.3697 34.0152C48.3697 34.0152 48.3697 34.0152 48.3743 34.0178C48.6507 34.2182 48.908 34.4237 49.1441 34.6321C49.699 35.0814 50.0932 35.6449 50.3742 36.1855C50.5418 36.5078 50.9997 36.3783 50.9997 36.0103V31.2077C50.9997 26.2043 39.7751 22.1403 25.8539 22.0717L25.8565 22.0666Z" fill="white"/>
</g>
</svg>
